<svg width="186" height="146" viewBox="0 0 186 146" fill="none" xmlns="http://www.w3.org/2000/svg">
<rect width="2" height="2" fill="#D9D9D9"/>
<rect x="8" width="2" height="2" fill="#D9D9D9"/>
<rect x="16" width="2" height="2" fill="#D9D9D9"/>
<rect x="24" width="2" height="2" fill="#D9D9D9"/>
<rect x="32" width="2" height="2" fill="#D9D9D9"/>
<rect x="40" width="2" height="2" fill="#D9D9D9"/>
<rect x="48" width="2" height="2" fill="#D9D9D9"/>
<rect x="56" width="2" height="2" fill="#D9D9D9"/>
<rect x="64" width="2" height="2" fill="#D9D9D9"/>
<rect x="72" width="2" height="2" fill="#D9D9D9"/>
<rect x="80" width="2" height="2" fill="#D9D9D9"/>
<rect x="88" width="2" height="2" fill="#D9D9D9"/>
<rect x="96" width="2" height="2" fill="#D9D9D9"/>
<rect x="104" width="2" height="2" fill="#D9D9D9"/>
<rect x="112" width="2" height="2" fill="#D9D9D9"/>
<rect x="120" width="2" height="2" fill="#D9D9D9"/>
<rect x="128" width="2" height="2" fill="#D9D9D9"/>
<rect x="136" width="2" height="2" fill="#D9D9D9"/>
<rect x="144" width="2" height="2" fill="#D9D9D9"/>
<rect x="152" width="2" height="2" fill="#D9D9D9"/>
<rect x="160" width="2" height="2" fill="#D9D9D9"/>
<rect x="168" width="2" height="2" fill="#D9D9D9"/>
<rect x="176" width="2" height="2" fill="#D9D9D9"/>
<rect x="184" width="2" height="2" fill="#D9D9D9"/>
<rect y="8" width="2" height="2" fill="#D9D9D9"/>
<rect x="8" y="8" width="2" height="2" fill="#D9D9D9"/>
<rect x="16" y="8" width="2" height="2" fill="#D9D9D9"/>
<rect x="24" y="8" width="2" height="2" fill="#D9D9D9"/>
<rect x="32" y="8" width="2" height="2" fill="#D9D9D9"/>
<rect x="40" y="8" width="2" height="2" fill="#D9D9D9"/>
<rect x="48" y="8" width="2" height="2" fill="#D9D9D9"/>
<rect x="56" y="8" width="2" height="2" fill="#D9D9D9"/>
<rect x="64" y="8" width="2" height="2" fill="#D9D9D9"/>
<rect x="72" y="8" width="2" height="2" fill="#D9D9D9"/>
<rect x="80" y="8" width="2" height="2" fill="#D9D9D9"/>
<rect x="88" y="8" width="2" height="2" fill="#D9D9D9"/>
<rect x="96" y="8" width="2" height="2" fill="#D9D9D9"/>
<rect x="104" y="8" width="2" height="2" fill="#D9D9D9"/>
<rect x="112" y="8" width="2" height="2" fill="#D9D9D9"/>
<rect x="120" y="8" width="2" height="2" fill="#D9D9D9"/>
<rect x="128" y="8" width="2" height="2" fill="#D9D9D9"/>
<rect x="136" y="8" width="2" height="2" fill="#D9D9D9"/>
<rect x="144" y="8" width="2" height="2" fill="#D9D9D9"/>
<rect x="152" y="8" width="2" height="2" fill="#D9D9D9"/>
<rect x="160" y="8" width="2" height="2" fill="#D9D9D9"/>
<rect x="168" y="8" width="2" height="2" fill="#D9D9D9"/>
<rect x="176" y="8" width="2" height="2" fill="#D9D9D9"/>
<rect x="184" y="8" width="2" height="2" fill="#D9D9D9"/>
<rect y="16" width="2" height="2" fill="#D9D9D9"/>
<rect x="8" y="16" width="2" height="2" fill="#D9D9D9"/>
<rect x="16" y="16" width="2" height="2" fill="#D9D9D9"/>
<rect x="24" y="16" width="2" height="2" fill="#D9D9D9"/>
<rect x="32" y="16" width="2" height="2" fill="#D9D9D9"/>
<rect x="40" y="16" width="2" height="2" fill="#D9D9D9"/>
<rect x="48" y="16" width="2" height="2" fill="#D9D9D9"/>
<rect x="56" y="16" width="2" height="2" fill="#D9D9D9"/>
<rect x="64" y="16" width="2" height="2" fill="#D9D9D9"/>
<rect x="72" y="16" width="2" height="2" fill="#D9D9D9"/>
<rect x="80" y="16" width="2" height="2" fill="#D9D9D9"/>
<rect x="88" y="16" width="2" height="2" fill="#D9D9D9"/>
<rect x="96" y="16" width="2" height="2" fill="#D9D9D9"/>
<rect x="104" y="16" width="2" height="2" fill="#D9D9D9"/>
<rect x="112" y="16" width="2" height="2" fill="#D9D9D9"/>
<rect x="120" y="16" width="2" height="2" fill="#D9D9D9"/>
<rect x="128" y="16" width="2" height="2" fill="#D9D9D9"/>
<rect x="136" y="16" width="2" height="2" fill="#D9D9D9"/>
<rect x="144" y="16" width="2" height="2" fill="#D9D9D9"/>
<rect x="152" y="16" width="2" height="2" fill="#D9D9D9"/>
<rect x="160" y="16" width="2" height="2" fill="#D9D9D9"/>
<rect x="168" y="16" width="2" height="2" fill="#D9D9D9"/>
<rect x="176" y="16" width="2" height="2" fill="#D9D9D9"/>
<rect x="184" y="16" width="2" height="2" fill="#D9D9D9"/>
<rect y="24" width="2" height="2" fill="#D9D9D9"/>
<rect x="8" y="24" width="2" height="2" fill="#D9D9D9"/>
<rect x="16" y="24" width="2" height="2" fill="#D9D9D9"/>
<rect x="24" y="24" width="2" height="2" fill="#D9D9D9"/>
<rect x="32" y="24" width="2" height="2" fill="#D9D9D9"/>
<rect x="40" y="24" width="2" height="2" fill="#D9D9D9"/>
<rect x="48" y="24" width="2" height="2" fill="#D9D9D9"/>
<rect x="56" y="24" width="2" height="2" fill="#D9D9D9"/>
<rect x="64" y="24" width="2" height="2" fill="#D9D9D9"/>
<rect x="72" y="24" width="2" height="2" fill="#D9D9D9"/>
<rect x="80" y="24" width="2" height="2" fill="#D9D9D9"/>
<rect x="88" y="24" width="2" height="2" fill="#D9D9D9"/>
<rect x="96" y="24" width="2" height="2" fill="#D9D9D9"/>
<rect x="104" y="24" width="2" height="2" fill="#D9D9D9"/>
<rect x="112" y="24" width="2" height="2" fill="#D9D9D9"/>
<rect x="120" y="24" width="2" height="2" fill="#D9D9D9"/>
<rect x="128" y="24" width="2" height="2" fill="#D9D9D9"/>
<rect x="136" y="24" width="2" height="2" fill="#D9D9D9"/>
<rect x="144" y="24" width="2" height="2" fill="#D9D9D9"/>
<rect x="152" y="24" width="2" height="2" fill="#D9D9D9"/>
<rect x="160" y="24" width="2" height="2" fill="#D9D9D9"/>
<rect x="168" y="24" width="2" height="2" fill="#D9D9D9"/>
<rect x="176" y="24" width="2" height="2" fill="#D9D9D9"/>
<rect x="184" y="24" width="2" height="2" fill="#D9D9D9"/>
<rect y="32" width="2" height="2" fill="#D9D9D9"/>
<rect x="8" y="32" width="2" height="2" fill="#D9D9D9"/>
<rect x="16" y="32" width="2" height="2" fill="#D9D9D9"/>
<rect x="24" y="32" width="2" height="2" fill="#D9D9D9"/>
<rect x="32" y="32" width="2" height="2" fill="#D9D9D9"/>
<rect x="40" y="32" width="2" height="2" fill="#D9D9D9"/>
<rect x="48" y="32" width="2" height="2" fill="#D9D9D9"/>
<rect x="56" y="32" width="2" height="2" fill="#D9D9D9"/>
<rect x="64" y="32" width="2" height="2" fill="#D9D9D9"/>
<rect x="72" y="32" width="2" height="2" fill="#D9D9D9"/>
<rect x="80" y="32" width="2" height="2" fill="#D9D9D9"/>
<rect x="88" y="32" width="2" height="2" fill="#D9D9D9"/>
<rect x="96" y="32" width="2" height="2" fill="#D9D9D9"/>
<rect x="104" y="32" width="2" height="2" fill="#D9D9D9"/>
<rect x="112" y="32" width="2" height="2" fill="#D9D9D9"/>
<rect x="120" y="32" width="2" height="2" fill="#D9D9D9"/>
<rect x="128" y="32" width="2" height="2" fill="#D9D9D9"/>
<rect x="136" y="32" width="2" height="2" fill="#D9D9D9"/>
<rect x="144" y="32" width="2" height="2" fill="#D9D9D9"/>
<rect x="152" y="32" width="2" height="2" fill="#D9D9D9"/>
<rect x="160" y="32" width="2" height="2" fill="#D9D9D9"/>
<rect x="168" y="32" width="2" height="2" fill="#D9D9D9"/>
<rect x="176" y="32" width="2" height="2" fill="#D9D9D9"/>
<rect x="184" y="32" width="2" height="2" fill="#D9D9D9"/>
<rect y="40" width="2" height="2" fill="#D9D9D9"/>
<rect x="8" y="40" width="2" height="2" fill="#D9D9D9"/>
<rect x="16" y="40" width="2" height="2" fill="#D9D9D9"/>
<rect x="24" y="40" width="2" height="2" fill="#D9D9D9"/>
<rect x="32" y="40" width="2" height="2" fill="#D9D9D9"/>
<rect x="40" y="40" width="2" height="2" fill="#D9D9D9"/>
<rect x="48" y="40" width="2" height="2" fill="#D9D9D9"/>
<rect x="56" y="40" width="2" height="2" fill="#D9D9D9"/>
<rect x="64" y="40" width="2" height="2" fill="#D9D9D9"/>
<rect x="72" y="40" width="2" height="2" fill="#D9D9D9"/>
<rect x="80" y="40" width="2" height="2" fill="#D9D9D9"/>
<rect x="88" y="40" width="2" height="2" fill="#D9D9D9"/>
<rect x="96" y="40" width="2" height="2" fill="#D9D9D9"/>
<rect x="104" y="40" width="2" height="2" fill="#D9D9D9"/>
<rect x="112" y="40" width="2" height="2" fill="#D9D9D9"/>
<rect x="120" y="40" width="2" height="2" fill="#D9D9D9"/>
<rect x="128" y="40" width="2" height="2" fill="#D9D9D9"/>
<rect x="136" y="40" width="2" height="2" fill="#D9D9D9"/>
<rect x="144" y="40" width="2" height="2" fill="#D9D9D9"/>
<rect x="152" y="40" width="2" height="2" fill="#D9D9D9"/>
<rect x="160" y="40" width="2" height="2" fill="#D9D9D9"/>
<rect x="168" y="40" width="2" height="2" fill="#D9D9D9"/>
<rect x="176" y="40" width="2" height="2" fill="#D9D9D9"/>
<rect x="184" y="40" width="2" height="2" fill="#D9D9D9"/>
<rect y="48" width="2" height="2" fill="#D9D9D9"/>
<rect x="8" y="48" width="2" height="2" fill="#D9D9D9"/>
<rect x="16" y="48" width="2" height="2" fill="#D9D9D9"/>
<rect x="24" y="48" width="2" height="2" fill="#D9D9D9"/>
<rect x="32" y="48" width="2" height="2" fill="#D9D9D9"/>
<rect x="40" y="48" width="2" height="2" fill="#D9D9D9"/>
<rect x="48" y="48" width="2" height="2" fill="#D9D9D9"/>
<rect x="56" y="48" width="2" height="2" fill="#D9D9D9"/>
<rect x="64" y="48" width="2" height="2" fill="#D9D9D9"/>
<rect x="72" y="48" width="2" height="2" fill="#D9D9D9"/>
<rect x="80" y="48" width="2" height="2" fill="#D9D9D9"/>
<rect x="88" y="48" width="2" height="2" fill="#D9D9D9"/>
<rect x="96" y="48" width="2" height="2" fill="#D9D9D9"/>
<rect x="104" y="48" width="2" height="2" fill="#D9D9D9"/>
<rect x="112" y="48" width="2" height="2" fill="#D9D9D9"/>
<rect x="120" y="48" width="2" height="2" fill="#D9D9D9"/>
<rect x="128" y="48" width="2" height="2" fill="#D9D9D9"/>
<rect x="136" y="48" width="2" height="2" fill="#D9D9D9"/>
<rect x="144" y="48" width="2" height="2" fill="#D9D9D9"/>
<rect x="152" y="48" width="2" height="2" fill="#D9D9D9"/>
<rect x="160" y="48" width="2" height="2" fill="#D9D9D9"/>
<rect x="168" y="48" width="2" height="2" fill="#D9D9D9"/>
<rect x="176" y="48" width="2" height="2" fill="#D9D9D9"/>
<rect x="184" y="48" width="2" height="2" fill="#D9D9D9"/>
<rect y="56" width="2" height="2" fill="#D9D9D9"/>
<rect x="8" y="56" width="2" height="2" fill="#D9D9D9"/>
<rect x="16" y="56" width="2" height="2" fill="#D9D9D9"/>
<rect x="24" y="56" width="2" height="2" fill="#D9D9D9"/>
<rect x="32" y="56" width="2" height="2" fill="#D9D9D9"/>
<rect x="40" y="56" width="2" height="2" fill="#D9D9D9"/>
<rect x="48" y="56" width="2" height="2" fill="#D9D9D9"/>
<rect x="56" y="56" width="2" height="2" fill="#D9D9D9"/>
<rect x="64" y="56" width="2" height="2" fill="#D9D9D9"/>
<rect x="72" y="56" width="2" height="2" fill="#D9D9D9"/>
<rect x="80" y="56" width="2" height="2" fill="#D9D9D9"/>
<rect x="88" y="56" width="2" height="2" fill="#D9D9D9"/>
<rect x="96" y="56" width="2" height="2" fill="#D9D9D9"/>
<rect x="104" y="56" width="2" height="2" fill="#D9D9D9"/>
<rect x="112" y="56" width="2" height="2" fill="#D9D9D9"/>
<rect x="120" y="56" width="2" height="2" fill="#D9D9D9"/>
<rect x="128" y="56" width="2" height="2" fill="#D9D9D9"/>
<rect x="136" y="56" width="2" height="2" fill="#D9D9D9"/>
<rect x="144" y="56" width="2" height="2" fill="#D9D9D9"/>
<rect x="152" y="56" width="2" height="2" fill="#D9D9D9"/>
<rect x="160" y="56" width="2" height="2" fill="#D9D9D9"/>
<rect x="168" y="56" width="2" height="2" fill="#D9D9D9"/>
<rect x="176" y="56" width="2" height="2" fill="#D9D9D9"/>
<rect x="184" y="56" width="2" height="2" fill="#D9D9D9"/>
<rect y="64" width="2" height="2" fill="#D9D9D9"/>
<rect x="8" y="64" width="2" height="2" fill="#D9D9D9"/>
<rect x="16" y="64" width="2" height="2" fill="#D9D9D9"/>
<rect x="24" y="64" width="2" height="2" fill="#D9D9D9"/>
<rect x="32" y="64" width="2" height="2" fill="#D9D9D9"/>
<rect x="40" y="64" width="2" height="2" fill="#D9D9D9"/>
<rect x="48" y="64" width="2" height="2" fill="#D9D9D9"/>
<rect x="56" y="64" width="2" height="2" fill="#D9D9D9"/>
<rect x="64" y="64" width="2" height="2" fill="#D9D9D9"/>
<rect x="72" y="64" width="2" height="2" fill="#D9D9D9"/>
<rect x="80" y="64" width="2" height="2" fill="#D9D9D9"/>
<rect x="88" y="64" width="2" height="2" fill="#D9D9D9"/>
<rect x="96" y="64" width="2" height="2" fill="#D9D9D9"/>
<rect x="104" y="64" width="2" height="2" fill="#D9D9D9"/>
<rect x="112" y="64" width="2" height="2" fill="#D9D9D9"/>
<rect x="120" y="64" width="2" height="2" fill="#D9D9D9"/>
<rect x="128" y="64" width="2" height="2" fill="#D9D9D9"/>
<rect x="136" y="64" width="2" height="2" fill="#D9D9D9"/>
<rect x="144" y="64" width="2" height="2" fill="#D9D9D9"/>
<rect x="152" y="64" width="2" height="2" fill="#D9D9D9"/>
<rect x="160" y="64" width="2" height="2" fill="#D9D9D9"/>
<rect x="168" y="64" width="2" height="2" fill="#D9D9D9"/>
<rect x="176" y="64" width="2" height="2" fill="#D9D9D9"/>
<rect x="184" y="64" width="2" height="2" fill="#D9D9D9"/>
<rect y="72" width="2" height="2" fill="#D9D9D9"/>
<rect x="8" y="72" width="2" height="2" fill="#D9D9D9"/>
<rect x="16" y="72" width="2" height="2" fill="#D9D9D9"/>
<rect x="24" y="72" width="2" height="2" fill="#D9D9D9"/>
<rect x="32" y="72" width="2" height="2" fill="#D9D9D9"/>
<rect x="40" y="72" width="2" height="2" fill="#D9D9D9"/>
<rect x="48" y="72" width="2" height="2" fill="#D9D9D9"/>
<rect x="56" y="72" width="2" height="2" fill="#D9D9D9"/>
<rect x="64" y="72" width="2" height="2" fill="#D9D9D9"/>
<rect x="72" y="72" width="2" height="2" fill="#D9D9D9"/>
<rect x="80" y="72" width="2" height="2" fill="#D9D9D9"/>
<rect x="88" y="72" width="2" height="2" fill="#D9D9D9"/>
<rect x="96" y="72" width="2" height="2" fill="#D9D9D9"/>
<rect x="104" y="72" width="2" height="2" fill="#D9D9D9"/>
<rect x="112" y="72" width="2" height="2" fill="#D9D9D9"/>
<rect x="120" y="72" width="2" height="2" fill="#D9D9D9"/>
<rect x="128" y="72" width="2" height="2" fill="#D9D9D9"/>
<rect x="136" y="72" width="2" height="2" fill="#D9D9D9"/>
<rect x="144" y="72" width="2" height="2" fill="#D9D9D9"/>
<rect x="152" y="72" width="2" height="2" fill="#D9D9D9"/>
<rect x="160" y="72" width="2" height="2" fill="#D9D9D9"/>
<rect x="168" y="72" width="2" height="2" fill="#D9D9D9"/>
<rect x="176" y="72" width="2" height="2" fill="#D9D9D9"/>
<rect x="184" y="72" width="2" height="2" fill="#D9D9D9"/>
<rect y="80" width="2" height="2" fill="#D9D9D9"/>
<rect x="8" y="80" width="2" height="2" fill="#D9D9D9"/>
<rect x="16" y="80" width="2" height="2" fill="#D9D9D9"/>
<rect x="24" y="80" width="2" height="2" fill="#D9D9D9"/>
<rect x="32" y="80" width="2" height="2" fill="#D9D9D9"/>
<rect x="40" y="80" width="2" height="2" fill="#D9D9D9"/>
<rect x="48" y="80" width="2" height="2" fill="#D9D9D9"/>
<rect x="56" y="80" width="2" height="2" fill="#D9D9D9"/>
<rect x="64" y="80" width="2" height="2" fill="#D9D9D9"/>
<rect x="72" y="80" width="2" height="2" fill="#D9D9D9"/>
<rect x="80" y="80" width="2" height="2" fill="#D9D9D9"/>
<rect x="88" y="80" width="2" height="2" fill="#D9D9D9"/>
<rect x="96" y="80" width="2" height="2" fill="#D9D9D9"/>
<rect x="104" y="80" width="2" height="2" fill="#D9D9D9"/>
<rect x="112" y="80" width="2" height="2" fill="#D9D9D9"/>
<rect x="120" y="80" width="2" height="2" fill="#D9D9D9"/>
<rect x="128" y="80" width="2" height="2" fill="#D9D9D9"/>
<rect x="136" y="80" width="2" height="2" fill="#D9D9D9"/>
<rect x="144" y="80" width="2" height="2" fill="#D9D9D9"/>
<rect x="152" y="80" width="2" height="2" fill="#D9D9D9"/>
<rect x="160" y="80" width="2" height="2" fill="#D9D9D9"/>
<rect x="168" y="80" width="2" height="2" fill="#D9D9D9"/>
<rect x="176" y="80" width="2" height="2" fill="#D9D9D9"/>
<rect x="184" y="80" width="2" height="2" fill="#D9D9D9"/>
<rect y="88" width="2" height="2" fill="#D9D9D9"/>
<rect x="8" y="88" width="2" height="2" fill="#D9D9D9"/>
<rect x="16" y="88" width="2" height="2" fill="#D9D9D9"/>
<rect x="24" y="88" width="2" height="2" fill="#D9D9D9"/>
<rect x="32" y="88" width="2" height="2" fill="#D9D9D9"/>
<rect x="40" y="88" width="2" height="2" fill="#D9D9D9"/>
<rect x="48" y="88" width="2" height="2" fill="#D9D9D9"/>
<rect x="56" y="88" width="2" height="2" fill="#D9D9D9"/>
<rect x="64" y="88" width="2" height="2" fill="#D9D9D9"/>
<rect x="72" y="88" width="2" height="2" fill="#D9D9D9"/>
<rect x="80" y="88" width="2" height="2" fill="#D9D9D9"/>
<rect x="88" y="88" width="2" height="2" fill="#D9D9D9"/>
<rect x="96" y="88" width="2" height="2" fill="#D9D9D9"/>
<rect x="104" y="88" width="2" height="2" fill="#D9D9D9"/>
<rect x="112" y="88" width="2" height="2" fill="#D9D9D9"/>
<rect x="120" y="88" width="2" height="2" fill="#D9D9D9"/>
<rect x="128" y="88" width="2" height="2" fill="#D9D9D9"/>
<rect x="136" y="88" width="2" height="2" fill="#D9D9D9"/>
<rect x="144" y="88" width="2" height="2" fill="#D9D9D9"/>
<rect x="152" y="88" width="2" height="2" fill="#D9D9D9"/>
<rect x="160" y="88" width="2" height="2" fill="#D9D9D9"/>
<rect x="168" y="88" width="2" height="2" fill="#D9D9D9"/>
<rect x="176" y="88" width="2" height="2" fill="#D9D9D9"/>
<rect x="184" y="88" width="2" height="2" fill="#D9D9D9"/>
<rect y="96" width="2" height="2" fill="#D9D9D9"/>
<rect x="8" y="96" width="2" height="2" fill="#D9D9D9"/>
<rect x="16" y="96" width="2" height="2" fill="#D9D9D9"/>
<rect x="24" y="96" width="2" height="2" fill="#D9D9D9"/>
<rect x="32" y="96" width="2" height="2" fill="#D9D9D9"/>
<rect x="40" y="96" width="2" height="2" fill="#D9D9D9"/>
<rect x="48" y="96" width="2" height="2" fill="#D9D9D9"/>
<rect x="56" y="96" width="2" height="2" fill="#D9D9D9"/>
<rect x="64" y="96" width="2" height="2" fill="#D9D9D9"/>
<rect x="72" y="96" width="2" height="2" fill="#D9D9D9"/>
<rect x="80" y="96" width="2" height="2" fill="#D9D9D9"/>
<rect x="88" y="96" width="2" height="2" fill="#D9D9D9"/>
<rect x="96" y="96" width="2" height="2" fill="#D9D9D9"/>
<rect x="104" y="96" width="2" height="2" fill="#D9D9D9"/>
<rect x="112" y="96" width="2" height="2" fill="#D9D9D9"/>
<rect x="120" y="96" width="2" height="2" fill="#D9D9D9"/>
<rect x="128" y="96" width="2" height="2" fill="#D9D9D9"/>
<rect x="136" y="96" width="2" height="2" fill="#D9D9D9"/>
<rect x="144" y="96" width="2" height="2" fill="#D9D9D9"/>
<rect x="152" y="96" width="2" height="2" fill="#D9D9D9"/>
<rect x="160" y="96" width="2" height="2" fill="#D9D9D9"/>
<rect x="168" y="96" width="2" height="2" fill="#D9D9D9"/>
<rect x="176" y="96" width="2" height="2" fill="#D9D9D9"/>
<rect x="184" y="96" width="2" height="2" fill="#D9D9D9"/>
<rect y="104" width="2" height="2" fill="#D9D9D9"/>
<rect x="8" y="104" width="2" height="2" fill="#D9D9D9"/>
<rect x="16" y="104" width="2" height="2" fill="#D9D9D9"/>
<rect x="24" y="104" width="2" height="2" fill="#D9D9D9"/>
<rect x="32" y="104" width="2" height="2" fill="#D9D9D9"/>
<rect x="40" y="104" width="2" height="2" fill="#D9D9D9"/>
<rect x="48" y="104" width="2" height="2" fill="#D9D9D9"/>
<rect x="56" y="104" width="2" height="2" fill="#D9D9D9"/>
<rect x="64" y="104" width="2" height="2" fill="#D9D9D9"/>
<rect x="72" y="104" width="2" height="2" fill="#D9D9D9"/>
<rect x="80" y="104" width="2" height="2" fill="#D9D9D9"/>
<rect x="88" y="104" width="2" height="2" fill="#D9D9D9"/>
<rect x="96" y="104" width="2" height="2" fill="#D9D9D9"/>
<rect x="104" y="104" width="2" height="2" fill="#D9D9D9"/>
<rect x="112" y="104" width="2" height="2" fill="#D9D9D9"/>
<rect x="120" y="104" width="2" height="2" fill="#D9D9D9"/>
<rect x="128" y="104" width="2" height="2" fill="#D9D9D9"/>
<rect x="136" y="104" width="2" height="2" fill="#D9D9D9"/>
<rect x="144" y="104" width="2" height="2" fill="#D9D9D9"/>
<rect x="152" y="104" width="2" height="2" fill="#D9D9D9"/>
<rect x="160" y="104" width="2" height="2" fill="#D9D9D9"/>
<rect x="168" y="104" width="2" height="2" fill="#D9D9D9"/>
<rect x="176" y="104" width="2" height="2" fill="#D9D9D9"/>
<rect x="184" y="104" width="2" height="2" fill="#D9D9D9"/>
<rect y="104" width="2" height="2" fill="#D9D9D9"/>
<rect x="8" y="104" width="2" height="2" fill="#D9D9D9"/>
<rect x="16" y="104" width="2" height="2" fill="#D9D9D9"/>
<rect x="24" y="104" width="2" height="2" fill="#D9D9D9"/>
<rect x="32" y="104" width="2" height="2" fill="#D9D9D9"/>
<rect x="40" y="104" width="2" height="2" fill="#D9D9D9"/>
<rect x="48" y="104" width="2" height="2" fill="#D9D9D9"/>
<rect x="56" y="104" width="2" height="2" fill="#D9D9D9"/>
<rect x="64" y="104" width="2" height="2" fill="#D9D9D9"/>
<rect x="72" y="104" width="2" height="2" fill="#D9D9D9"/>
<rect x="80" y="104" width="2" height="2" fill="#D9D9D9"/>
<rect x="88" y="104" width="2" height="2" fill="#D9D9D9"/>
<rect x="96" y="104" width="2" height="2" fill="#D9D9D9"/>
<rect x="104" y="104" width="2" height="2" fill="#D9D9D9"/>
<rect x="112" y="104" width="2" height="2" fill="#D9D9D9"/>
<rect x="120" y="104" width="2" height="2" fill="#D9D9D9"/>
<rect x="128" y="104" width="2" height="2" fill="#D9D9D9"/>
<rect x="136" y="104" width="2" height="2" fill="#D9D9D9"/>
<rect x="144" y="104" width="2" height="2" fill="#D9D9D9"/>
<rect x="152" y="104" width="2" height="2" fill="#D9D9D9"/>
<rect x="160" y="104" width="2" height="2" fill="#D9D9D9"/>
<rect x="168" y="104" width="2" height="2" fill="#D9D9D9"/>
<rect x="176" y="104" width="2" height="2" fill="#D9D9D9"/>
<rect x="184" y="104" width="2" height="2" fill="#D9D9D9"/>
<rect y="112" width="2" height="2" fill="#D9D9D9"/>
<rect x="8" y="112" width="2" height="2" fill="#D9D9D9"/>
<rect x="16" y="112" width="2" height="2" fill="#D9D9D9"/>
<rect x="24" y="112" width="2" height="2" fill="#D9D9D9"/>
<rect x="32" y="112" width="2" height="2" fill="#D9D9D9"/>
<rect x="40" y="112" width="2" height="2" fill="#D9D9D9"/>
<rect x="48" y="112" width="2" height="2" fill="#D9D9D9"/>
<rect x="56" y="112" width="2" height="2" fill="#D9D9D9"/>
<rect x="64" y="112" width="2" height="2" fill="#D9D9D9"/>
<rect x="72" y="112" width="2" height="2" fill="#D9D9D9"/>
<rect x="80" y="112" width="2" height="2" fill="#D9D9D9"/>
<rect x="88" y="112" width="2" height="2" fill="#D9D9D9"/>
<rect x="96" y="112" width="2" height="2" fill="#D9D9D9"/>
<rect x="104" y="112" width="2" height="2" fill="#D9D9D9"/>
<rect x="112" y="112" width="2" height="2" fill="#D9D9D9"/>
<rect x="120" y="112" width="2" height="2" fill="#D9D9D9"/>
<rect x="128" y="112" width="2" height="2" fill="#D9D9D9"/>
<rect x="136" y="112" width="2" height="2" fill="#D9D9D9"/>
<rect x="144" y="112" width="2" height="2" fill="#D9D9D9"/>
<rect x="152" y="112" width="2" height="2" fill="#D9D9D9"/>
<rect x="160" y="112" width="2" height="2" fill="#D9D9D9"/>
<rect x="168" y="112" width="2" height="2" fill="#D9D9D9"/>
<rect x="176" y="112" width="2" height="2" fill="#D9D9D9"/>
<rect x="184" y="112" width="2" height="2" fill="#D9D9D9"/>
<rect y="120" width="2" height="2" fill="#D9D9D9"/>
<rect x="8" y="120" width="2" height="2" fill="#D9D9D9"/>
<rect x="16" y="120" width="2" height="2" fill="#D9D9D9"/>
<rect x="24" y="120" width="2" height="2" fill="#D9D9D9"/>
<rect x="32" y="120" width="2" height="2" fill="#D9D9D9"/>
<rect x="40" y="120" width="2" height="2" fill="#D9D9D9"/>
<rect x="48" y="120" width="2" height="2" fill="#D9D9D9"/>
<rect x="56" y="120" width="2" height="2" fill="#D9D9D9"/>
<rect x="64" y="120" width="2" height="2" fill="#D9D9D9"/>
<rect x="72" y="120" width="2" height="2" fill="#D9D9D9"/>
<rect x="80" y="120" width="2" height="2" fill="#D9D9D9"/>
<rect x="88" y="120" width="2" height="2" fill="#D9D9D9"/>
<rect x="96" y="120" width="2" height="2" fill="#D9D9D9"/>
<rect x="104" y="120" width="2" height="2" fill="#D9D9D9"/>
<rect x="112" y="120" width="2" height="2" fill="#D9D9D9"/>
<rect x="120" y="120" width="2" height="2" fill="#D9D9D9"/>
<rect x="128" y="120" width="2" height="2" fill="#D9D9D9"/>
<rect x="136" y="120" width="2" height="2" fill="#D9D9D9"/>
<rect x="144" y="120" width="2" height="2" fill="#D9D9D9"/>
<rect x="152" y="120" width="2" height="2" fill="#D9D9D9"/>
<rect x="160" y="120" width="2" height="2" fill="#D9D9D9"/>
<rect x="168" y="120" width="2" height="2" fill="#D9D9D9"/>
<rect x="176" y="120" width="2" height="2" fill="#D9D9D9"/>
<rect x="184" y="120" width="2" height="2" fill="#D9D9D9"/>
<rect y="128" width="2" height="2" fill="#D9D9D9"/>
<rect x="8" y="128" width="2" height="2" fill="#D9D9D9"/>
<rect x="16" y="128" width="2" height="2" fill="#D9D9D9"/>
<rect x="24" y="128" width="2" height="2" fill="#D9D9D9"/>
<rect x="32" y="128" width="2" height="2" fill="#D9D9D9"/>
<rect x="40" y="128" width="2" height="2" fill="#D9D9D9"/>
<rect x="48" y="128" width="2" height="2" fill="#D9D9D9"/>
<rect x="56" y="128" width="2" height="2" fill="#D9D9D9"/>
<rect x="64" y="128" width="2" height="2" fill="#D9D9D9"/>
<rect x="72" y="128" width="2" height="2" fill="#D9D9D9"/>
<rect x="80" y="128" width="2" height="2" fill="#D9D9D9"/>
<rect x="88" y="128" width="2" height="2" fill="#D9D9D9"/>
<rect x="96" y="128" width="2" height="2" fill="#D9D9D9"/>
<rect x="104" y="128" width="2" height="2" fill="#D9D9D9"/>
<rect x="112" y="128" width="2" height="2" fill="#D9D9D9"/>
<rect x="120" y="128" width="2" height="2" fill="#D9D9D9"/>
<rect x="128" y="128" width="2" height="2" fill="#D9D9D9"/>
<rect x="136" y="128" width="2" height="2" fill="#D9D9D9"/>
<rect x="144" y="128" width="2" height="2" fill="#D9D9D9"/>
<rect x="152" y="128" width="2" height="2" fill="#D9D9D9"/>
<rect x="160" y="128" width="2" height="2" fill="#D9D9D9"/>
<rect x="168" y="128" width="2" height="2" fill="#D9D9D9"/>
<rect x="176" y="128" width="2" height="2" fill="#D9D9D9"/>
<rect x="184" y="128" width="2" height="2" fill="#D9D9D9"/>
<rect y="136" width="2" height="2" fill="#D9D9D9"/>
<rect x="8" y="136" width="2" height="2" fill="#D9D9D9"/>
<rect x="16" y="136" width="2" height="2" fill="#D9D9D9"/>
<rect x="24" y="136" width="2" height="2" fill="#D9D9D9"/>
<rect x="32" y="136" width="2" height="2" fill="#D9D9D9"/>
<rect x="40" y="136" width="2" height="2" fill="#D9D9D9"/>
<rect x="48" y="136" width="2" height="2" fill="#D9D9D9"/>
<rect x="56" y="136" width="2" height="2" fill="#D9D9D9"/>
<rect x="64" y="136" width="2" height="2" fill="#D9D9D9"/>
<rect x="72" y="136" width="2" height="2" fill="#D9D9D9"/>
<rect x="80" y="136" width="2" height="2" fill="#D9D9D9"/>
<rect x="88" y="136" width="2" height="2" fill="#D9D9D9"/>
<rect x="96" y="136" width="2" height="2" fill="#D9D9D9"/>
<rect x="104" y="136" width="2" height="2" fill="#D9D9D9"/>
<rect x="112" y="136" width="2" height="2" fill="#D9D9D9"/>
<rect x="120" y="136" width="2" height="2" fill="#D9D9D9"/>
<rect x="128" y="136" width="2" height="2" fill="#D9D9D9"/>
<rect x="136" y="136" width="2" height="2" fill="#D9D9D9"/>
<rect x="144" y="136" width="2" height="2" fill="#D9D9D9"/>
<rect x="152" y="136" width="2" height="2" fill="#D9D9D9"/>
<rect x="160" y="136" width="2" height="2" fill="#D9D9D9"/>
<rect x="168" y="136" width="2" height="2" fill="#D9D9D9"/>
<rect x="176" y="136" width="2" height="2" fill="#D9D9D9"/>
<rect x="184" y="136" width="2" height="2" fill="#D9D9D9"/>
<rect y="144" width="2" height="2" fill="#D9D9D9"/>
<rect x="8" y="144" width="2" height="2" fill="#D9D9D9"/>
<rect x="16" y="144" width="2" height="2" fill="#D9D9D9"/>
<rect x="24" y="144" width="2" height="2" fill="#D9D9D9"/>
<rect x="32" y="144" width="2" height="2" fill="#D9D9D9"/>
<rect x="40" y="144" width="2" height="2" fill="#D9D9D9"/>
<rect x="48" y="144" width="2" height="2" fill="#D9D9D9"/>
<rect x="56" y="144" width="2" height="2" fill="#D9D9D9"/>
<rect x="64" y="144" width="2" height="2" fill="#D9D9D9"/>
<rect x="72" y="144" width="2" height="2" fill="#D9D9D9"/>
<rect x="80" y="144" width="2" height="2" fill="#D9D9D9"/>
<rect x="88" y="144" width="2" height="2" fill="#D9D9D9"/>
<rect x="96" y="144" width="2" height="2" fill="#D9D9D9"/>
<rect x="104" y="144" width="2" height="2" fill="#D9D9D9"/>
<rect x="112" y="144" width="2" height="2" fill="#D9D9D9"/>
<rect x="120" y="144" width="2" height="2" fill="#D9D9D9"/>
<rect x="128" y="144" width="2" height="2" fill="#D9D9D9"/>
<rect x="136" y="144" width="2" height="2" fill="#D9D9D9"/>
<rect x="144" y="144" width="2" height="2" fill="#D9D9D9"/>
<rect x="152" y="144" width="2" height="2" fill="#D9D9D9"/>
<rect x="160" y="144" width="2" height="2" fill="#D9D9D9"/>
<rect x="168" y="144" width="2" height="2" fill="#D9D9D9"/>
<rect x="176" y="144" width="2" height="2" fill="#D9D9D9"/>
<rect x="184" y="144" width="2" height="2" fill="#D9D9D9"/>
<rect y="144" width="2" height="2" fill="#D9D9D9"/>
<rect x="8" y="144" width="2" height="2" fill="#D9D9D9"/>
<rect x="16" y="144" width="2" height="2" fill="#D9D9D9"/>
<rect x="24" y="144" width="2" height="2" fill="#D9D9D9"/>
<rect x="32" y="144" width="2" height="2" fill="#D9D9D9"/>
<rect x="40" y="144" width="2" height="2" fill="#D9D9D9"/>
<rect x="48" y="144" width="2" height="2" fill="#D9D9D9"/>
<rect x="56" y="144" width="2" height="2" fill="#D9D9D9"/>
<rect x="64" y="144" width="2" height="2" fill="#D9D9D9"/>
<rect x="72" y="144" width="2" height="2" fill="#D9D9D9"/>
<rect x="80" y="144" width="2" height="2" fill="#D9D9D9"/>
<rect x="88" y="144" width="2" height="2" fill="#D9D9D9"/>
<rect x="96" y="144" width="2" height="2" fill="#D9D9D9"/>
<rect x="104" y="144" width="2" height="2" fill="#D9D9D9"/>
<rect x="112" y="144" width="2" height="2" fill="#D9D9D9"/>
<rect x="120" y="144" width="2" height="2" fill="#D9D9D9"/>
<rect x="128" y="144" width="2" height="2" fill="#D9D9D9"/>
<rect x="136" y="144" width="2" height="2" fill="#D9D9D9"/>
<rect x="144" y="144" width="2" height="2" fill="#D9D9D9"/>
<rect x="152" y="144" width="2" height="2" fill="#D9D9D9"/>
<rect x="160" y="144" width="2" height="2" fill="#D9D9D9"/>
<rect x="168" y="144" width="2" height="2" fill="#D9D9D9"/>
<rect x="176" y="144" width="2" height="2" fill="#D9D9D9"/>
<rect x="184" y="144" width="2" height="2" fill="#D9D9D9"/>
</svg>
