<?xml version="1.0" encoding="utf-8"?>
<!-- Generator: Adobe Illustrator 26.3.1, SVG Export Plug-In . SVG Version: 6.00 Build 0)  -->
<svg version="1.1" id="Layer_1" xmlns="http://www.w3.org/2000/svg" xmlns:xlink="http://www.w3.org/1999/xlink" x="0px" y="0px"
	 viewBox="0 0 2197.5 1226.9" style="enable-background:new 0 0 2197.5 1226.9;" xml:space="preserve">
<style type="text/css">
</style>
<image style="overflow:visible;" width="4569" height="2556" xlink:href="./building 1.png"  transform="matrix(0.48 0 0 0.48 4.242 0)">
</image>
<path class="st0" d="M24.9,510.3L1631.7,49.1l128.2,22.4l146.3-38.2l291.5-23.8l-0.4,346.9l-288.3,16l-247,39.4
	c-33.1-8-30.4-7.4-30.4-7.4L3.8,681.9V548.4l21.1-5.9V510.3z"/>
<polygon class="st0" points="4.7,682.9 1631.5,404.4 1662,411.8 1909,372.4 2197.8,356.4 2197.3,824.9 1982.2,804.8 1663.5,808 
	1632.6,816.3 3.8,867.8 4.7,762.6 4.6,722.3 "/>
<polygon class="st0" points="3.8,867.8 1632.6,816.3 1662.7,808.2 1907.6,805.8 1982.2,804.8 2197.8,824.9 2197.3,1173.1 
	2138.9,1186.3 2073.4,1202.9 1981.4,1222.1 75.6,1050.3 74.5,910.3 53.5,872.8 "/>
</svg>
