<svg version="1.1" id="Layer_1" xmlns="http://www.w3.org/2000/svg" xmlns:xlink="http://www.w3.org/1999/xlink" x="0px" y="0px"
	 viewBox="0 0 4961 2996" style="enable-background:new 0 0 4961 2996;" xml:space="preserve">
<style type="text/css">
	.st0{opacity:0.6;fill:#2BDCFF;}
</style>
<image style="overflow:visible;" width="4961" height="2996" xlink:href="./photo01.png" >
</image>
<polygon class="st0" points="1350.3,524.7 1350,1475.4 708.9,1475.4 708.9,524.7 "/>
<polygon class="st0" points="1959.6,655.9 1959.4,1475.4 1350.2,1475.4 1350.2,655.9 "/>
<polygon class="st0" points="2567.2,655.9 2567,1475.4 1959.5,1475.4 1959.5,655.9 "/>
<polygon class="st0" points="3180.1,655.9 3179.9,1475.4 2567.2,1475.4 2567.2,655.9 "/>
<polygon class="st0" points="3789.5,655.9 3789.3,1475.4 3180,1475.4 3180,655.9 "/>
<polygon class="st0" points="4428.7,524.7 4428.5,1475.4 3789.5,1475.4 3789.5,524.7 "/>
<polygon class="st0" points="3785.8,2594.9 3786,1644.3 4428.7,1644.3 4428.7,2594.9 "/>
<polygon class="st0" points="3176.4,2463.8 3176.6,1644.3 3785.9,1644.3 3785.9,2463.8 "/>
<polygon class="st0" points="2568.8,2463.8 2569,1644.3 3176.5,1644.3 3176.5,2463.8 "/>
<polygon class="st0" points="1955.9,2463.8 1956.1,1644.3 2568.8,1644.3 2568.8,2463.8 "/>
<polygon class="st0" points="1346.6,2463.8 1346.8,1644.3 1956,1644.3 1956,2463.8 "/>
<polygon class="st0" points="708.9,2594.9 709.1,1644.3 1346.6,1644.3 1346.6,2594.9 "/>
</svg>
