<svg version="1.1" id="Layer_1" xmlns="http://www.w3.org/2000/svg" xmlns:xlink="http://www.w3.org/1999/xlink" x="0px" y="0px"
	 viewBox="0 0 4961 2996" style="enable-background:new 0 0 4961 2996;" xml:space="preserve">
<style type="text/css">
	.st0{opacity:0.6;fill:#2BDCFF;}
</style>
<image style="overflow:visible;" width="4961" height="2996" xlink:href="./phot0o1.jpg" >
</image>
<polygon class="st0" points="1357,462.9 1356.7,1413.5 712.6,1413.5 712.6,462.9 "/>
<polygon class="st0" points="1969.2,594 1969,1413.5 1356.9,1413.5 1356.9,594 "/>
<polygon class="st0" points="2579.6,594 2579.4,1413.5 1969.1,1413.5 1969.1,594 "/>
<polygon class="st0" points="3195.4,594 3195.2,1413.5 2579.6,1413.5 2579.6,594 "/>
<polygon class="st0" points="3807.6,594 3807.4,1413.5 3195.3,1413.5 3195.3,594 "/>
<polygon class="st0" points="4449.8,462.9 4449.6,1413.5 3807.6,1413.5 3807.6,462.9 "/>
<polygon class="st0" points="3803.9,2533.1 3804.1,1582.5 4449.8,1582.5 4449.8,2533.1 "/>
<polygon class="st0" points="3191.6,2402 3191.9,1582.5 3804,1582.5 3804,2402 "/>
<polygon class="st0" points="2581.2,2402 2581.4,1582.5 3191.7,1582.5 3191.7,2402 "/>
<polygon class="st0" points="1965.5,2402 1965.7,1582.5 2581.2,1582.5 2581.2,2402 "/>
<polygon class="st0" points="1353.2,2402 1353.5,1582.5 1965.6,1582.5 1965.6,2402 "/>
<polygon class="st0" points="712.6,2533.1 712.8,1582.5 1353.2,1582.5 1353.2,2533.1 "/>
</svg>
