<?xml version="1.0" encoding="utf-8"?>
<!-- Generator: Adobe Illustrator 26.3.1, SVG Export Plug-In . SVG Version: 6.00 Build 0)  -->
<svg version="1.1" id="Layer_1" xmlns="http://www.w3.org/2000/svg" xmlns:xlink="http://www.w3.org/1999/xlink" x="0px" y="0px"
	 viewBox="0 0 1190.6 719" xml:space="preserve">
<style type="text/css">
	.st0{opacity:0.6;fill:#2BDCFF;}
</style>
<image style="overflow:visible;" width="4961" height="2996" xlink:href="D:/Lemons/capitel/photo01.png"  transform="matrix(0.24 0 0 0.24 0 0)">
</image>
<polygon class="st0" points="322.4,164.2 322.4,343.2 177,343.2 177,164.2 "/>
<polygon class="st0" points="469.5,388.6 469.4,567.6 177,567.6 177,388.6 "/>
<polygon class="st0" points="763.7,388.6 763.6,567.6 469.5,567.6 469.5,388.6 "/>
<polygon class="st0" points="1056.7,388.6 1056.6,567.6 763.8,567.6 763.8,388.6 "/>
<polygon class="st0" points="469.5,164.2 469.5,343.2 322.4,343.2 322.4,164.2 "/>
<polygon class="st0" points="616.7,164.2 616.6,343.2 469.5,343.2 469.5,164.2 "/>
<polygon class="st0" points="763.8,164.2 763.7,343.2 616.7,343.2 616.7,164.2 "/>
<polygon class="st0" points="910.9,164.2 910.9,343.2 763.8,343.2 763.8,164.2 "/>
<polygon class="st0" points="1056.7,164.2 1056.6,343.2 910.9,343.2 910.9,164.2 "/>
</svg>
